<?xml version="1.0" encoding="UTF-8"?>
<svg version="1.1" xmlns="http://www.w3.org/2000/svg" width="265" height="358">
<path d="M0 0 C0.89470001 -0.00794586 1.78940002 -0.01589172 2.71121216 -0.02407837 C26.60278278 -0.18692257 47.48268735 3.9051249 67.6875 17.375 C70.57523676 17.05414036 73.13263706 16.23329173 75.90234375 15.3515625 C84.57440737 13.11418799 94.33748313 13.11059935 102.53515625 16.984375 C108.08457895 20.56984593 112.26475261 25.78921145 114.25 32.1171875 C115.88695228 40.56503053 115.36680088 48.9970547 110.6875 56.375 C107.06509037 60.27203274 103.10573995 63.4295067 98.6875 66.375 C98.99494141 68.02435547 98.99494141 68.02435547 99.30859375 69.70703125 C99.58098279 71.2004746 99.85310362 72.69396688 100.125 74.1875 C100.25970703 74.90615234 100.39441406 75.62480469 100.53320312 76.36523438 C102.6998299 88.36094847 102.88143554 100.35895514 103.00390625 112.51171875 C103.02451973 114.24478094 103.0455172 115.9778386 103.06687927 117.71089172 C103.1216469 122.23660578 103.17125282 126.76236172 103.21972656 131.28814697 C103.27027594 135.9206508 103.32578612 140.55309501 103.38085938 145.18554688 C103.48788532 154.24864679 103.5894498 163.31179884 103.6875 172.375 C104.30324387 172.4379425 104.91898773 172.50088501 105.5533905 172.56573486 C106.76675835 172.69416779 106.76675835 172.69416779 108.00463867 172.82519531 C108.80600754 172.90876282 109.6073764 172.99233032 110.43302917 173.07843018 C115.99638614 173.81027544 120.97052437 175.98506735 125.3125 179.5 C127.37196776 183.80615986 127.43682163 187.69173979 126.6875 192.375 C124.63573764 196.47852472 122.94793669 198.71599997 118.6875 200.375 C113.40475559 200.5734573 108.97524353 199.55622907 104.6875 196.375 C104.84089844 197.37789062 104.99429688 198.38078125 105.15234375 199.4140625 C110.10891414 236.09991926 111.08615614 284.36594233 88.39453125 315.5234375 C86.54448949 317.86136638 84.66263815 320.14246352 82.6875 322.375 C83.368125 323.035 84.04875 323.695 84.75 324.375 C85.73401535 325.3702292 86.71255704 326.37088169 87.6875 327.375 C88.27660156 327.97957031 88.86570313 328.58414062 89.47265625 329.20703125 C93.42118828 333.45736191 96.78790137 337.49914063 97.6875 343.375 C97.48821917 347.74323574 96.46839802 350.52716787 93.5 353.75 C88.87005461 356.42507956 85.41545571 357.64313106 80.0625 356.8125 C75.59286834 354.908768 73.27837627 352.26002267 70.1875 348.59765625 C66.45570026 343.86966682 66.45570026 343.86966682 61.6875 340.375 C56.93339461 340.84067991 52.82071821 342.40304512 48.4375 344.1875 C16.05847497 356.73832729 -28.69574187 358.91468589 -61.1171875 345.1875 C-65.0724117 343.72364478 -68.47155383 344.94479403 -72.3125 346.375 C-77.80975189 349.39079058 -82.56134808 353.3191386 -87.3125 357.375 C-91.25927697 359.34838848 -96.01089523 358.81790148 -100.3125 358.375 C-103.58709047 356.76642924 -105.45641724 355.46455988 -107.6875 352.625 C-109.06326777 347.67223604 -109.04285293 343.86613724 -106.8125 339.3125 C-104.16247706 336.19872304 -101.34782057 333.60410643 -98.21484375 330.98828125 C-96.48693907 329.52293293 -94.88880241 328.00040841 -93.3125 326.375 C-94.16521484 325.50101562 -94.16521484 325.50101562 -95.03515625 324.609375 C-107.35791041 311.52544905 -114.50481869 296.59527911 -114.42602539 278.5456543 C-114.42617142 277.66710281 -114.42631744 276.78855133 -114.4264679 275.88337708 C-114.42577299 272.98863224 -114.41800036 270.0939523 -114.41015625 267.19921875 C-114.40829057 265.18854304 -114.40686737 263.17786688 -114.40586853 261.16719055 C-114.40205517 255.88181294 -114.39223495 250.59646292 -114.38116455 245.31109619 C-114.37092505 239.91508355 -114.36636547 234.51906644 -114.36132812 229.12304688 C-114.35061163 218.54035248 -114.33354937 207.95767854 -114.3125 197.375 C-114.8575972 197.72823334 -115.4026944 198.08146667 -115.96430969 198.44540405 C-116.68160751 198.90347443 -117.39890533 199.3615448 -118.13793945 199.83349609 C-118.84803665 200.28985443 -119.55813385 200.74621277 -120.28974915 201.21640015 C-124.18413757 203.44704454 -128.01764693 203.3195725 -132.3125 202.375 C-135.13674288 200.18477082 -136.72758603 198.54482793 -138.3125 195.375 C-138.88430242 190.30229572 -139.22064409 185.89938472 -136.5625 181.4375 C-129.40135716 176.89292858 -121.62883019 175.27406272 -113.3125 174.375 C-113.5765863 170.81196853 -113.84919034 167.24964282 -114.125 163.6875 C-114.21120605 162.57133301 -114.29741211 161.45516602 -114.38623047 160.30517578 C-114.97046838 152.98954505 -115.70097262 145.70356609 -116.52758789 138.41162109 C-118.95647107 116.71514107 -121.35972644 91.51667931 -114.3125 70.375 C-115.05371094 70.27574219 -115.79492188 70.17648438 -116.55859375 70.07421875 C-122.14848677 68.65494095 -126.54405724 63.79350789 -129.75 59.125 C-133.76933484 52.05097068 -133.59689294 42.08644138 -131.4765625 34.30859375 C-128.33195794 27.39679514 -123.5254544 23.10415336 -116.54296875 20.23828125 C-112.83914207 19.24850411 -109.3676959 19.03656169 -105.5625 19.0625 C-104.85657715 19.05871338 -104.1506543 19.05492676 -103.42333984 19.05102539 C-99.17730626 19.10493865 -95.84591061 19.69950514 -91.9375 21.3125 C-89.63775866 22.22909929 -89.63775866 22.22909929 -87.3125 22.375 C-84.58728618 21.05634815 -82.47085023 19.37648869 -80.109375 17.484375 C-69.49734561 9.48088915 -56.11036587 6.05801716 -43.3125 3.375 C-42.54808594 3.20983887 -41.78367187 3.04467773 -40.99609375 2.87451172 C-27.45636002 0.10528107 -13.76273565 0.06443327 0 0 Z " fill="#CFB597" transform="translate(138.3125,-0.375)"/>
<path d="M0 0 C0.89470001 -0.00794586 1.78940002 -0.01589172 2.71121216 -0.02407837 C26.60278278 -0.18692257 47.48268735 3.9051249 67.6875 17.375 C70.57523676 17.05414036 73.13263706 16.23329173 75.90234375 15.3515625 C84.57440737 13.11418799 94.33748313 13.11059935 102.53515625 16.984375 C108.08457895 20.56984593 112.26475261 25.78921145 114.25 32.1171875 C115.88695228 40.56503053 115.36680088 48.9970547 110.6875 56.375 C107.06509037 60.27203274 103.10573995 63.4295067 98.6875 66.375 C98.99494141 68.02435547 98.99494141 68.02435547 99.30859375 69.70703125 C99.58098279 71.2004746 99.85310362 72.69396688 100.125 74.1875 C100.25970703 74.90615234 100.39441406 75.62480469 100.53320312 76.36523438 C102.6998299 88.36094847 102.88143554 100.35895514 103.00390625 112.51171875 C103.02451973 114.24478094 103.0455172 115.9778386 103.06687927 117.71089172 C103.1216469 122.23660578 103.17125282 126.76236172 103.21972656 131.28814697 C103.27027594 135.9206508 103.32578612 140.55309501 103.38085938 145.18554688 C103.48788532 154.24864679 103.5894498 163.31179884 103.6875 172.375 C104.30324387 172.4379425 104.91898773 172.50088501 105.5533905 172.56573486 C106.76675835 172.69416779 106.76675835 172.69416779 108.00463867 172.82519531 C108.80600754 172.90876282 109.6073764 172.99233032 110.43302917 173.07843018 C115.99638614 173.81027544 120.97052437 175.98506735 125.3125 179.5 C127.37196776 183.80615986 127.43682163 187.69173979 126.6875 192.375 C124.63573764 196.47852472 122.94793669 198.71599997 118.6875 200.375 C113.40475559 200.5734573 108.97524353 199.55622907 104.6875 196.375 C104.84089844 197.37789062 104.99429688 198.38078125 105.15234375 199.4140625 C110.10891414 236.09991926 111.08615614 284.36594233 88.39453125 315.5234375 C86.54448949 317.86136638 84.66263815 320.14246352 82.6875 322.375 C83.368125 323.035 84.04875 323.695 84.75 324.375 C85.73401535 325.3702292 86.71255704 326.37088169 87.6875 327.375 C88.27660156 327.97957031 88.86570313 328.58414062 89.47265625 329.20703125 C93.42118828 333.45736191 96.78790137 337.49914063 97.6875 343.375 C97.48821917 347.74323574 96.46839802 350.52716787 93.5 353.75 C88.87005461 356.42507956 85.41545571 357.64313106 80.0625 356.8125 C75.59286834 354.908768 73.27837627 352.26002267 70.1875 348.59765625 C66.45570026 343.86966682 66.45570026 343.86966682 61.6875 340.375 C56.93339461 340.84067991 52.82071821 342.40304512 48.4375 344.1875 C16.05847497 356.73832729 -28.69574187 358.91468589 -61.1171875 345.1875 C-65.0724117 343.72364478 -68.47155383 344.94479403 -72.3125 346.375 C-77.80975189 349.39079058 -82.56134808 353.3191386 -87.3125 357.375 C-91.25927697 359.34838848 -96.01089523 358.81790148 -100.3125 358.375 C-103.58709047 356.76642924 -105.45641724 355.46455988 -107.6875 352.625 C-109.06326777 347.67223604 -109.04285293 343.86613724 -106.8125 339.3125 C-104.16247706 336.19872304 -101.34782057 333.60410643 -98.21484375 330.98828125 C-96.48693907 329.52293293 -94.88880241 328.00040841 -93.3125 326.375 C-94.16521484 325.50101562 -94.16521484 325.50101562 -95.03515625 324.609375 C-107.35791041 311.52544905 -114.50481869 296.59527911 -114.42602539 278.5456543 C-114.42617142 277.66710281 -114.42631744 276.78855133 -114.4264679 275.88337708 C-114.42577299 272.98863224 -114.41800036 270.0939523 -114.41015625 267.19921875 C-114.40829057 265.18854304 -114.40686737 263.17786688 -114.40586853 261.16719055 C-114.40205517 255.88181294 -114.39223495 250.59646292 -114.38116455 245.31109619 C-114.37092505 239.91508355 -114.36636547 234.51906644 -114.36132812 229.12304688 C-114.35061163 218.54035248 -114.33354937 207.95767854 -114.3125 197.375 C-114.8575972 197.72823334 -115.4026944 198.08146667 -115.96430969 198.44540405 C-116.68160751 198.90347443 -117.39890533 199.3615448 -118.13793945 199.83349609 C-118.84803665 200.28985443 -119.55813385 200.74621277 -120.28974915 201.21640015 C-124.18413757 203.44704454 -128.01764693 203.3195725 -132.3125 202.375 C-135.13674288 200.18477082 -136.72758603 198.54482793 -138.3125 195.375 C-138.88430242 190.30229572 -139.22064409 185.89938472 -136.5625 181.4375 C-129.40135716 176.89292858 -121.62883019 175.27406272 -113.3125 174.375 C-113.5765863 170.81196853 -113.84919034 167.24964282 -114.125 163.6875 C-114.21120605 162.57133301 -114.29741211 161.45516602 -114.38623047 160.30517578 C-114.97046838 152.98954505 -115.70097262 145.70356609 -116.52758789 138.41162109 C-118.95647107 116.71514107 -121.35972644 91.51667931 -114.3125 70.375 C-115.05371094 70.27574219 -115.79492188 70.17648438 -116.55859375 70.07421875 C-122.14848677 68.65494095 -126.54405724 63.79350789 -129.75 59.125 C-133.76933484 52.05097068 -133.59689294 42.08644138 -131.4765625 34.30859375 C-128.33195794 27.39679514 -123.5254544 23.10415336 -116.54296875 20.23828125 C-112.83914207 19.24850411 -109.3676959 19.03656169 -105.5625 19.0625 C-104.85657715 19.05871338 -104.1506543 19.05492676 -103.42333984 19.05102539 C-99.17730626 19.10493865 -95.84591061 19.69950514 -91.9375 21.3125 C-89.63775866 22.22909929 -89.63775866 22.22909929 -87.3125 22.375 C-84.58728618 21.05634815 -82.47085023 19.37648869 -80.109375 17.484375 C-69.49734561 9.48088915 -56.11036587 6.05801716 -43.3125 3.375 C-42.54808594 3.20983887 -41.78367187 3.04467773 -40.99609375 2.87451172 C-27.45636002 0.10528107 -13.76273565 0.06443327 0 0 Z M-92.96484375 33.5625 C-112.78287772 57.30457064 -115.79725256 91.77179741 -114.3125 121.375 C-113.90114328 124.9668163 -113.38295589 128.53345936 -112.86218262 132.1109314 C-110.17547378 150.90599268 -109.97783078 169.66866272 -110.0625 188.6171875 C-110.06531408 189.31339541 -110.06812816 190.00960332 -110.07102752 190.72690845 C-110.11635346 201.56825391 -110.21059317 212.40906342 -110.3125 223.25 C-110.40144367 232.77215698 -110.48317848 242.29415057 -110.52617264 251.81664193 C-110.54263567 255.24630401 -110.56747827 258.67544751 -110.61315918 262.10485458 C-110.91519378 285.93588733 -108.56619873 304.44570464 -91.3125 322.375 C-71.43290048 340.38420709 -45.19055438 348.44036505 -18.7109375 348.578125 C-17.83079987 348.58382507 -16.95066223 348.58952515 -16.04385376 348.59539795 C-14.19347304 348.60477298 -12.34307618 348.61135174 -10.49267578 348.61523438 C-7.71486045 348.62490475 -4.93779772 348.65598625 -2.16015625 348.6875 C8.84518977 348.7534124 18.96517449 347.9381057 29.6875 345.375 C30.62400391 345.15585937 31.56050781 344.93671875 32.52539062 344.7109375 C54.32828536 339.26446887 75.0493394 328.65307721 87.6875 309.375 C101.13659858 286.95983569 102.95776914 261.0415331 102.9375 235.5 C102.93690582 234.66263306 102.93631165 233.82526611 102.93569946 232.96252441 C102.92913485 230.53997424 102.91261002 228.11776843 102.890625 225.6953125 C102.8862291 224.97519989 102.88183319 224.25508728 102.87730408 223.51315308 C102.82303785 219.55590597 102.4992749 215.74294813 101.96798706 211.81576538 C101.2840714 205.86441183 101.00078112 199.86964945 100.65234375 193.890625 C100.60800642 193.13390755 100.56366909 192.37719009 100.5179882 191.59754181 C99.81015809 179.22684623 99.47909082 166.87399875 99.37890625 154.484375 C99.3719511 153.65115219 99.36499596 152.81792938 99.35783005 151.9594574 C99.29698552 144.28636972 99.25862699 136.6132153 99.23120117 128.93994141 C99.59018183 76.51045627 99.59018183 76.51045627 75.6875 31.375 C74.87667969 30.46105469 74.06585938 29.54710938 73.23046875 28.60546875 C58.30294599 12.6288668 37.24195571 5.03443793 15.61791992 4.08764648 C11.14036647 3.96266505 6.66597971 3.95283254 2.18701172 3.98388672 C-0.54641224 3.99990572 -3.27834038 3.983972 -6.01171875 3.96484375 C-37.77139756 3.92783672 -70.14008738 9.83343474 -92.96484375 33.5625 Z " fill="#060605" transform="translate(138.3125,-0.375)"/>
<path d="M0 0 C6.67571741 5.55681185 10.28092803 12.60549214 11.390625 21.16796875 C11.81730795 29.96314321 8.90435133 36.89002509 3.32421875 43.6015625 C-0.36608604 47.49078707 -3.94569951 49.82488572 -8.92578125 51.7265625 C-9.83328125 52.1390625 -10.74078125 52.5515625 -11.67578125 52.9765625 C-20.54529561 55.02337351 -29.03036958 54.37314448 -36.92578125 49.7265625 C-44.85380999 44.23614143 -49.55032546 38.12202197 -51.92578125 28.7265625 C-53.46258615 19.54147275 -51.16305308 12.33563161 -45.92578125 4.7265625 C-33.2048982 -9.58443093 -15.40401733 -10.91453933 0 0 Z " fill="#FAFAFA" transform="translate(190.92578125,28.2734375)"/>
<path d="M0 0 C5.04769832 3.95739548 8.7849611 9.2298833 10.8125 15.3125 C11.70736003 25.82427357 11.82810046 34.75724395 4.8125 43.3125 C-1.88195829 50.35026384 -11.04764481 54.27444452 -20.75 54.8125 C-30.0580004 54.25805232 -37.42362783 50.29660432 -44.015625 43.8515625 C-50.24563639 36.5682758 -52.05849912 29.17339997 -51.6640625 19.67578125 C-50.37948241 10.61001519 -45.22643203 3.93585345 -38.1875 -1.6875 C-25.61112487 -9.69275723 -11.94866128 -8.10882684 0 0 Z " fill="#FBFBFB" transform="translate(107.1875,31.6875)"/>
<path d="M0 0 C3.69784779 1.33887592 6.59761512 2.83896726 9 6 C9.11085937 6.65226562 9.22171875 7.30453125 9.3359375 7.9765625 C9.80608989 10.12971554 9.80608989 10.12971554 11.70703125 11.08984375 C12.40183594 11.36957031 13.09664062 11.64929688 13.8125 11.9375 C18.3111759 13.97722223 20.77735012 16.55470024 23 21 C23.12437082 25.60172042 22.84834789 29.00622104 19.8125 32.5625 C16.590516 34.20929182 14.56357561 34.11336409 11 34 C11.10699219 35.09699219 11.21398437 36.19398437 11.32421875 37.32421875 C11.44619676 38.77857194 11.56724138 40.23300363 11.6875 41.6875 C11.76033203 42.40873047 11.83316406 43.12996094 11.90820312 43.87304688 C12.27144213 48.55241998 11.93498021 51.29265658 9 55 C5.77717664 57.33376864 2.89864649 57.31825686 -1 57 C-1.86625 56.62875 -2.7325 56.2575 -3.625 55.875 C-5.94801839 54.70388482 -5.94801839 54.70388482 -7.9375 55.875 C-8.618125 56.24625 -9.29875 56.6175 -10 57 C-13.94475612 57.58751687 -15.43237793 57.41990755 -18.671875 55.0234375 C-21.80575612 50.9535986 -21.58340094 48.15957426 -21.3125 43.1875 C-21.27866211 42.00510742 -21.27866211 42.00510742 -21.24414062 40.79882812 C-21.18554161 38.86506071 -21.09586827 36.93227833 -21 35 C-22.25941406 35.04898438 -23.51882812 35.09796875 -24.81640625 35.1484375 C-28.49393117 35.29147327 -28.84401623 35.12611454 -31.9375 32.625 C-35.15009583 28.53624167 -35.43553023 26.22636279 -35 21 C-32.55895989 16.21180594 -29.71382995 13.55332456 -25 11 C-23.68 11 -22.36 11 -21 11 C-21.12375 10.278125 -21.2475 9.55625 -21.375 8.8125 C-21 6 -21 6 -18.125 3.25 C-12.30272874 -0.94203531 -7.0420754 -0.4883191 0 0 Z " fill="#080706" transform="translate(136,74)"/>
<path d="M0 0 C-4.44113052 9.08692143 -4.44113052 9.08692143 -8 12 C-10.9210398 12.36777201 -13.56496877 12.19199213 -16.49609375 11.97265625 C-19.2436155 11.74738469 -19.2436155 11.74738469 -21.6875 14.125 C-23.24998102 17.54757746 -23.68240672 19.28467454 -23 23 C-22.13375 23.928125 -21.2675 24.85625 -20.375 25.8125 C-18 29 -18 29 -18.078125 31.2734375 C-18.59995566 33.57694715 -19.22665918 35.76920917 -20 38 C-20.33 38.99 -20.66 39.98 -21 41 C-24.96538774 40.46805774 -27.1402448 39.46366491 -30.125 36.8125 C-30.78757812 36.24144531 -31.45015625 35.67039063 -32.1328125 35.08203125 C-37.2159066 29.41406231 -37.65475847 23.89036546 -37.46875 16.55078125 C-36.61300665 10.06852538 -33.90959946 5.62399461 -29.08984375 1.27734375 C-20.6068299 -4.41499638 -9.29565974 -2.97461112 0 0 Z " fill="#CCB295" transform="translate(47,25)"/>
<path d="M0 0 C5.03186627 3.23969472 7.89877011 7.14960047 9.55078125 12.92578125 C11.08998709 20.03289693 9.9805219 25.40383358 6.5 31.76171875 C3.75176076 35.86260699 0.74814813 38.41728396 -4 40 C-4.89415055 38.25970698 -5.76475178 36.5072985 -6.625 34.75 C-7.11226562 33.77546875 -7.59953125 32.8009375 -8.1015625 31.796875 C-9 29 -9 29 -8.21875 26.7578125 C-7.8165625 26.17773438 -7.414375 25.59765625 -7 25 C-4.93696131 21.56160218 -4.49877192 19.0098246 -5 15 C-7.21826184 11.71697248 -8.62008972 11.08819346 -12.5 10.1875 C-16.11947238 9.82155728 -16.11947238 9.82155728 -20 11 C-22.64 8.03 -25.28 5.06 -28 2 C-27.67 1.01 -27.34 0.02 -27 -1 C-18.4219187 -4.76077171 -8.25887948 -4.20188605 0 0 Z " fill="#CBB295" transform="translate(239,21)"/>
<path d="M0 0 C1.13779907 0.00845947 1.13779907 0.00845947 2.29858398 0.01708984 C12.88834194 0.24658572 19.76417007 3.67227226 27.44140625 10.90625 C33.54040119 17.38738748 35.96224345 24.47837394 36.25 33.3125 C35.93305755 43.05319788 32.56977746 51.28102213 25.75 58.3125 C22.90521655 60.64005009 19.96187554 62.53182289 16.75 64.3125 C16.15832031 64.65410156 15.56664062 64.99570313 14.95703125 65.34765625 C7.12128782 69.06660732 -4.56699013 68.65450341 -12.625 65.875 C-20.93151502 61.93221162 -28.67496988 54.65449559 -32.14453125 46.109375 C-35.25569102 37.07422608 -35.56829447 28.51119517 -31.56640625 19.7265625 C-27.06181526 11.4659179 -21.69718334 6.45460759 -13.25 2.3125 C-12.11691406 1.74789063 -12.11691406 1.74789063 -10.9609375 1.171875 C-7.30939349 0.01432503 -3.79248229 -0.02916333 0 0 Z M-23.4375 14.625 C-29.39785809 21.66802352 -30.95317733 27.48427629 -30.71875 36.67578125 C-29.5449415 45.78257888 -24.81302557 52.98014324 -17.73828125 58.6875 C-10.95763659 63.1156761 -3.3396655 65.60100173 4.75 64.3125 C15.21447737 61.93867896 23.37425177 57.55942444 29.3125 48.4375 C33.29656944 40.36920295 33.28801747 30.82548498 30.89453125 22.24609375 C26.66886054 12.7996285 19.10337689 7.9218944 9.75 4.3125 C9.09 3.9825 8.43 3.6525 7.75 3.3125 C-5.09533391 2.27044483 -14.54165433 5.098358 -23.4375 14.625 Z " fill="#100F0E" transform="translate(86.25,21.6875)"/>
<path d="M0 0 C0.67160156 0.37125 1.34320313 0.7425 2.03515625 1.125 C3.08703125 1.7025 4.13890625 2.28 5.22265625 2.875 C12.86887702 8.99197661 18.34358081 15.93344255 19.44921875 25.83203125 C19.97819686 35.77346114 18.40391535 44.32259047 12.2734375 52.46484375 C6.08205099 59.20880836 -2.12752698 63.77163507 -11.3203125 64.328125 C-24.0824619 64.48423692 -32.23479545 62.40874066 -41.65625 53.53125 C-48.51153205 46.246439 -50.64183096 38.01889632 -50.57592773 28.17041016 C-50.13019839 18.90756298 -45.79077389 10.8215523 -38.96484375 4.58984375 C-27.73861343 -3.63249291 -12.77566419 -6.14255641 0 0 Z M-41.27734375 13.0625 C-46.46047987 20.56180593 -48.12808551 27.0627928 -46.96484375 36.125 C-44.49735408 45.09569579 -40.5067876 51.89430823 -32.3984375 56.62109375 C-23.08768701 61.40522027 -14.49052346 62.89494611 -4.27734375 59.625 C4.8787752 55.85949653 11.21269797 49.20333842 15.03515625 40.125 C17.41263306 32.42868083 16.47192947 24.32399844 13.03515625 17.125 C8.1882934 8.65852482 0.59856258 3.30658971 -8.71875 0.59375 C-21.58609508 -2.09160897 -33.26575089 2.90529628 -41.27734375 13.0625 Z " fill="#0C0B0A" transform="translate(185.96484375,20.875)"/>
<path d="M0 0 C2.1875 0.8125 2.1875 0.8125 4.6875 2.375 C11.06363085 4.99376803 18.23828396 4.82666827 24.6875 2.375 C26.42 1.6015625 26.42 1.6015625 28.1875 0.8125 C30.2109375 0.10546875 30.2109375 0.10546875 32.1875 -0.1875 C35.79984904 1.83541546 37.8799792 3.35121879 40.1875 6.8125 C40.74204545 13.02340909 40.74204545 13.02340909 38.99609375 15.5078125 C35.33229603 18.15081128 30.49341184 17.28487851 26.1875 16.8125 C23.8360148 15.85596365 21.50004012 14.85968798 19.1875 13.8125 C14.1323621 13.02547254 10.84517934 13.89576529 6.25390625 16.1328125 C1.82218861 17.59050412 -3.23324106 17.52127756 -7.8125 16.8125 C-10.31281654 13.06202518 -10.34853554 11.25393734 -9.8125 6.8125 C-3.88100282 -0.40148305 -3.88100282 -0.40148305 0 0 Z " fill="#A79278" transform="translate(114.8125,88.1875)"/>
<path d="M0 0 C2.28125 1.3046875 2.28125 1.3046875 4.5 2.875 C7.61030601 5.03507896 10.7225693 7.09697572 14 9 C11.6207765 10.586149 9.33848129 11.87756634 6.8125 13.1875 C3.36130783 15.04969416 0.7818037 17.05857008 -2 19.8125 C-5.0255266 22.63063163 -6.84863363 23.45047302 -11 23.4375 C-12.33671384 23.32685983 -13.67275437 23.19355665 -15 23 C-14.59483833 17.32773664 -12.630652 15.0961202 -9 11 C-9 10.34 -9 9.68 -9 9 C-12.47132095 10.40929697 -13.88093274 11.90605083 -15.75 15.125 C-16.17796875 15.84945313 -16.6059375 16.57390625 -17.046875 17.3203125 C-17.36140625 17.87460937 -17.6759375 18.42890625 -18 19 C-18.66 18.67 -19.32 18.34 -20 18 C-20.28417024 14.54010272 -20.35888036 12.57607289 -18.49609375 9.5859375 C-7.49508279 -2.22919002 -7.49508279 -2.22919002 0 0 Z " fill="#F7F7F7" transform="translate(54,331)"/>
<path d="M0 0 C3.07469523 1.70251719 5.40613254 3.81226508 7 7 C7.37766377 12.00404498 7.11200434 14.99885156 4 19 C2.09180914 21.12836673 0.7416826 21.88589498 -2.08203125 22.3203125 C-6.2192992 22.52614673 -8.42008631 22.36244605 -12 20.125 C-15.49687441 16.40957094 -15.32862375 13.41902765 -15.29296875 8.484375 C-14.88537873 5.02801166 -13.53723498 3.31336131 -11 1 C-7.51556578 -0.74221711 -3.80112955 -0.58675154 0 0 Z " fill="#070707" transform="translate(74,46)"/>
<path d="M0 0 C3.19163753 1.52328155 5.76213211 3.25782385 8 6 C8.90906587 10.83197176 8.69856539 14.85900986 6.125 19.0625 C2.4010035 22.45790857 -0.62271642 22.38765771 -5.515625 22.359375 C-8 22 -8 22 -11.0625 19.625 C-13.74781439 15.98683212 -14.39279906 13.69292064 -14.359375 9.10546875 C-13.72418186 5.38406547 -11.66020984 3.59687151 -9 1 C-5.93570224 -0.53214888 -3.3834358 -0.22938548 0 0 Z " fill="#050505" transform="translate(156,42)"/>
<path d="M0 0 C5.77990396 2.84824133 11.08748918 8.20254953 13.89453125 13.93359375 C14.19523729 16.69507755 14.08705933 19.14193662 13.89453125 21.93359375 C13.23453125 22.26359375 12.57453125 22.59359375 11.89453125 22.93359375 C11.40533203 21.86818359 11.40533203 21.86818359 10.90625 20.78125 C10.46925781 19.86214844 10.03226563 18.94304687 9.58203125 17.99609375 C9.15277344 17.07957031 8.72351563 16.16304688 8.28125 15.21875 C7.04374464 12.62389963 7.04374464 12.62389963 3.89453125 11.93359375 C4.32765625 12.79984375 4.32765625 12.79984375 4.76953125 13.68359375 C5.14078125 14.42609375 5.51203125 15.16859375 5.89453125 15.93359375 C6.26578125 16.55234375 6.63703125 17.17109375 7.01953125 17.80859375 C8.16368966 20.58726417 8.02970093 22.9598607 7.89453125 25.93359375 C1.65872339 26.54494746 1.65872339 26.54494746 -1.60546875 23.93359375 C-2.43046875 22.94359375 -3.25546875 21.95359375 -4.10546875 20.93359375 C-5.30959596 19.53413035 -6.51815887 18.13847476 -7.73046875 16.74609375 C-8.58511719 15.73482422 -8.58511719 15.73482422 -9.45703125 14.703125 C-11.17970612 12.71747686 -11.17970612 12.71747686 -14.10546875 10.93359375 C-12.81548267 7.0636355 -11.05269171 6.08413145 -7.79296875 3.68359375 C-6.34470703 2.59304688 -6.34470703 2.59304688 -4.8671875 1.48046875 C-2.10546875 -0.06640625 -2.10546875 -0.06640625 0 0 Z " fill="#F8F8F8" transform="translate(217.10546875,326.06640625)"/>
<path d="M0 0 C1.19315922 9.16412568 1.19315922 9.16412568 -1.46484375 13.25390625 C-5.65868942 17.23183115 -9.37166059 18.80469188 -15.1171875 19.125 C-17 19 -17 19 -19 18 C-17.63016497 14.83884224 -17.0109362 14.0072908 -14 12 C-14 11.34 -14 10.68 -14 10 C-17.54518884 11.39759905 -17.54518884 11.39759905 -21 13 C-21.36764408 7.48533873 -21.36764408 7.48533873 -19.81640625 5.4375 C-14.32020411 1.08781745 -6.8723691 -0.61087725 0 0 Z " fill="#F8F8F8" transform="translate(25,179)"/>
<path d="M0 0 C6.90025468 0.5018367 13.94537661 1.94537661 19 7 C19.125 10.125 19.125 10.125 19 13 C16.36 12.01 13.72 11.02 11 10 C11 10.99 11 11.98 11 13 C13.475 13.99 13.475 13.99 16 15 C16 16.32 16 17.64 16 19 C12.94347259 19.99337141 10.8642667 20.40012347 7.890625 19.0234375 C4.98337214 17.20905707 2.4276224 15.4276224 0 13 C-0.1953125 9.9609375 -0.1953125 9.9609375 -0.125 6.375 C-0.10695312 5.18648437 -0.08890625 3.99796875 -0.0703125 2.7734375 C-0.04710937 1.85820312 -0.02390625 0.94296875 0 0 Z " fill="#F6F6F6" transform="translate(242,176)"/>
<path d="M0 0 C0.05790353 3.29159316 0.09356261 6.58305603 0.125 9.875 C0.14175781 10.81214844 0.15851563 11.74929687 0.17578125 12.71484375 C0.18222656 13.61074219 0.18867188 14.50664063 0.1953125 15.4296875 C0.20578613 16.25710449 0.21625977 17.08452148 0.22705078 17.93701172 C0 20 0 20 -2 22 C-5.5 22.3125 -5.5 22.3125 -9 22 C-11.45391569 18.31912647 -11.22802759 15.55644412 -11.125 11.3125 C-11.11597656 10.61060547 -11.10695313 9.90871094 -11.09765625 9.18554688 C-11.07413704 7.45688475 -11.03826713 5.72839855 -11 4 C-9.73308493 3.32591692 -8.46129251 2.66099503 -7.1875 2 C-6.47980469 1.62875 -5.77210937 1.2575 -5.04296875 0.875 C-3 0 -3 0 0 0 Z " fill="#F6F6F6" transform="translate(129,105)"/>
<path d="M0 0 C5.445 1.485 5.445 1.485 11 3 C11.05380578 5.79192205 11.09357669 8.5828141 11.125 11.375 C11.15013672 12.56609375 11.15013672 12.56609375 11.17578125 13.78125 C11.19335473 15.85492015 11.10335168 17.92883241 11 20 C9 22 9 22 5.5 22.25 C2 22 2 22 0 20 C-0.22705078 17.93701172 -0.22705078 17.93701172 -0.1953125 15.4296875 C-0.18886719 14.53378906 -0.18242187 13.63789062 -0.17578125 12.71484375 C-0.15902344 11.77769531 -0.14226562 10.84054688 -0.125 9.875 C-0.11597656 8.93011719 -0.10695312 7.98523438 -0.09765625 7.01171875 C-0.07404668 4.67437173 -0.03817494 2.33715451 0 0 Z " fill="#F8F8F8" transform="translate(133,105)"/>
<path d="M0 0 C1.65 0.33 3.3 0.66 5 1 C4.67 2.65 4.34 4.3 4 6 C2.35 5.67 0.7 5.34 -1 5 C-0.67 3.35 -0.34 1.7 0 0 Z " fill="#F3F3F3" transform="translate(156,53)"/>
<path d="M0 0 C1.65 0 3.3 0 5 0 C5.625 1.875 5.625 1.875 6 4 C5.34 4.66 4.68 5.32 4 6 C1.875 5.625 1.875 5.625 0 5 C0 3.35 0 1.7 0 0 Z " fill="#F0F0F0" transform="translate(72,57)"/>
</svg>
